<mxfile host="app.diagrams.net" modified="2022-05-12T13:17:43.893Z" agent="5.0 (Macintosh; Intel Mac OS X 10_15_7) AppleWebKit/605.1.15 (KHTML, like Gecko) Version/15.0 Safari/605.1.15" etag="qtPkC6QEVO5WRmwwCQ6V" version="18.0.2" type="github">
  <diagram id="mu_Ez43nfv2vqFjGR5Ud" name="Page-1">
    <mxGraphModel dx="1205" dy="867" grid="1" gridSize="10" guides="1" tooltips="1" connect="1" arrows="1" fold="1" page="1" pageScale="1" pageWidth="827" pageHeight="1169" math="0" shadow="0">
      <root>
        <mxCell id="0" />
        <mxCell id="1" parent="0" />
      </root>
    </mxGraphModel>
  </diagram>
</mxfile>
